HIERARCHY
ROOT Hips
{
	OFFSET 0.00000 0.00000 0.00000
	CHANNELS 6 Xposition Yposition Zposition Zrotation Yrotation Xrotation 
	JOINT LHipJoint
	{
		OFFSET 0 0 0
		CHANNELS 3 Zrotation Yrotation Xrotation
		JOINT LeftHip
		{
			OFFSET 1.42489 -1.84941 0.69647
			CHANNELS 3 Zrotation Yrotation Xrotation
			JOINT LeftKnee
			{
				OFFSET 2.44443 -6.71602 0.00000
				CHANNELS 3 Zrotation Yrotation Xrotation
				JOINT LeftAnkle
				{
					OFFSET 2.62838 -7.22137 0.00000
					CHANNELS 3 Zrotation Yrotation Xrotation
					JOINT LeftToe
					{
						OFFSET 0.24036 -0.66037 2.29953
						CHANNELS 3 Zrotation Yrotation Xrotation
						End Site
						{
							OFFSET 0.00000 -0.00000 1.19837
						}
					}
				}
			}
		}
	}
	JOINT RHipJoint
	{
		OFFSET 0 0 0
		CHANNELS 3 Zrotation Yrotation Xrotation
		JOINT RightHip
		{
			OFFSET -1.37055 -1.84941 0.69647
			CHANNELS 3 Zrotation Yrotation Xrotation
			JOINT RightKnee
			{
				OFFSET -2.54834 -7.00152 0.00000
				CHANNELS 3 Zrotation Yrotation Xrotation
				JOINT RightAnkle
				{
					OFFSET -2.65692 -7.29983 0.00000
					CHANNELS 3 Zrotation Yrotation Xrotation
					JOINT RightToe
					{
						OFFSET -0.18839 -0.51760 2.29390
						CHANNELS 3 Zrotation Yrotation Xrotation
						End Site
						{
							OFFSET -0.00000 -0.00000 1.18261
						}
					}
				}
			}
		}
	}
	JOINT lowerback
	{
		OFFSET 0 0 0
		CHANNELS 3 Zrotation Yrotation Xrotation
		JOINT Chest
		{
			OFFSET 0.05220 2.15489 0.05011
			CHANNELS 3 Zrotation Yrotation Xrotation
			JOINT Chest2
			{
				OFFSET -0.07653 2.14219 -0.05668
				CHANNELS 3 Zrotation Yrotation Xrotation
				JOINT lowerneck
				{
					OFFSET 0 0 0
					CHANNELS 3 Zrotation Yrotation Xrotation
					JOINT Neck
					{
						OFFSET 0.01370 1.58638 0.01447
						CHANNELS 3 Zrotation Yrotation Xrotation
						JOINT Head
						{
							OFFSET 0.23548 1.54190 -0.21747
							CHANNELS 3 Zrotation Yrotation Xrotation
							End Site
							{
								OFFSET 0.07132 1.59823 -0.08163
							}
						}
					}
				}
				JOINT LeftCollar
				{
					OFFSET 0 0 0
					CHANNELS 3 Zrotation Yrotation Xrotation
					JOINT LeftShoulder
					{
						OFFSET 3.47056 1.45357 -0.58896
CHANNELS 3 Zrotation Xrotation Yrotation
						JOINT LeftElbow
						{
OFFSET 0 -5.190690 0.000000
CHANNELS 3 Zrotation Xrotation Yrotation
							JOINT LeftWrist
							{
OFFSET 0 -3.300160 0.000000
CHANNELS 3 Zrotation Xrotation Yrotation
								JOINT lhand
								{
									OFFSET 0 0 0
CHANNELS 3 Zrotation Xrotation Yrotation
									JOINT LFingers
									{
OFFSET 0 -0.707700 0.000000
CHANNELS 3 Zrotation Xrotation Yrotation
										End Site
										{
OFFSET 0 -0.570560 0.000000
										}
									}
								}
								JOINT LThumb
								{
OFFSET 0 0.000000 0.000000
CHANNELS 3 Zrotation Xrotation Yrotation
									End Site
									{
OFFSET 0 -0.579280 0.579280
									}
								}
							}
						}
					}
				}
				JOINT RightCollar
				{
					OFFSET 0 0 0
					CHANNELS 3 Zrotation Yrotation Xrotation
					JOINT RightShoulder
					{
						OFFSET -2.89018 2.03305 -0.26731
CHANNELS 3 Zrotation Xrotation Yrotation
						JOINT RightElbow
						{
OFFSET 0 -5.239240 0.000000
CHANNELS 3 Zrotation Xrotation Yrotation
							JOINT RightWrist
							{
OFFSET 0 -3.329530 0.000000
CHANNELS 3 Zrotation Xrotation Yrotation
								JOINT rhand
								{
									OFFSET 0 0 0
CHANNELS 3 Zrotation Xrotation Yrotation
									JOINT RFingers
									{
OFFSET 0 -0.607410 0.000000
CHANNELS 3 Zrotation Xrotation Yrotation
										End Site
										{
OFFSET 0 -0.489710 0.000000
										}
									}
								}
								JOINT RThumb
								{
OFFSET 0 0.000000 0.000000
CHANNELS 3 Zrotation Xrotation Yrotation
									End Site
									{
OFFSET 0 -0.497190 0.497190
									}
								}
							}
						}
					}
				}
			}
		}
	}
}
MOTION
Frames: 11
Frame Time: 0.008333333333333333
2.222676 17.247434 -6.539188 -87.348336 -74.917590 82.244921 0.000000 0.000000 0.000000 0.439401 -8.413510 -71.747392 31.564756 16.429983 125.884862 0.222829 -17.394773 -14.257754 1.235952 -7.049969 -19.863425 0.000000 0.000000 0.000000 33.726119 4.947259 -7.639846 -2.476159 -9.794412 28.313537 -0.755931 9.119859 -15.823820 -0.634037 5.094691 -14.178850 15.334654 0.187758 8.189342 1.419064 0.620988 7.562986 -7.106967 0.812021 3.763693 3.474158 3.695641 -4.577379 6.314180 3.764035 11.101656 1.715445 2.225129 4.443460 0.000000 0.000000 0.000000 6.144894 26.459263 -81.877654 35.952092 -45.480072 15.488392 -6.603955 5.661651 32.979013 0.000000 0.000000 0.000000 -7.125000 0.000000 0.000000 -21.285862 -1.273600 -23.418762 0.000000 0.000000 0.000000 0.697572 32.155144 61.418463 -39.294136 -47.646060 -17.915859 -2.133073 14.884797 -11.582567 0.000000 0.000000 0.000000 7.125000 0.000000 0.000000 17.375608 18.653103 11.442367
2.226224 17.298092 -6.652769 -81.897080 -75.608661 76.923604 0.000000 0.000000 0.000000 -0.568423 -9.063011 -70.085687 31.076461 16.757753 124.175451 0.447079 -15.645223 -15.247211 1.222028 -7.011577 -19.749649 0.000000 0.000000 0.000000 33.111907 4.490672 -7.589296 -2.414586 -9.680944 27.949410 -0.871291 8.408950 -16.793549 -0.695315 5.329868 -14.851986 14.205372 0.299387 7.972436 1.155006 0.703866 7.574554 -6.765907 0.827865 3.858788 3.444550 3.530859 -4.453970 6.429471 3.533117 11.162670 1.746488 2.114489 4.442761 0.000000 0.000000 0.000000 6.672725 26.641354 -82.388015 36.280958 -45.705376 15.723244 -7.528514 5.143488 32.577153 0.000000 0.000000 0.000000 -7.125000 0.000000 0.000000 -21.779807 -0.867767 -23.894256 0.000000 0.000000 0.000000 1.081403 32.215566 61.334454 -39.359867 -47.686011 -17.964410 -1.142414 13.375577 -11.186098 0.000000 0.000000 0.000000 7.125000 0.000000 0.000000 18.084638 19.051384 11.789758
2.237064 17.334706 -6.754342 -75.610065 -76.089888 70.970679 0.000000 0.000000 0.000000 -1.621445 -9.595970 -68.594172 30.507529 17.114331 122.221794 0.638184 -13.858011 -16.109984 1.213598 -6.988371 -19.680906 0.000000 0.000000 0.000000 32.409762 3.904160 -8.034887 -2.416941 -9.685216 27.963255 -1.017557 7.890590 -18.051776 -0.829467 5.810157 -16.234779 13.152716 0.365479 7.702473 0.948265 0.730793 7.534172 -6.400102 0.811594 3.918070 3.401955 3.403713 -4.542212 6.374373 3.359072 11.320764 1.733630 2.031015 4.521621 0.000000 0.000000 0.000000 6.903472 27.049805 -82.649898 36.487933 -45.845903 15.871631 -8.458127 4.881061 32.183068 0.000000 0.000000 0.000000 -7.125000 0.000000 0.000000 -22.278101 -0.476205 -24.379023 0.000000 0.000000 0.000000 1.190906 32.309899 61.395129 -39.436195 -47.732253 -18.020932 0.062704 11.994004 -10.913180 0.000000 0.000000 0.000000 7.125000 0.000000 0.000000 18.927052 19.329304 12.278877
2.257320 17.345072 -6.847146 -68.637081 -76.124859 64.381016 0.000000 0.000000 0.000000 -2.511829 -10.049255 -67.230811 29.849459 17.492899 120.010612 0.776609 -12.245604 -16.756223 1.199031 -6.947691 -19.560605 0.000000 0.000000 0.000000 31.836154 3.073113 -8.949419 -2.504272 -9.845477 28.477977 -1.197886 7.574607 -19.557714 -1.041064 6.486956 -18.204682 12.343623 0.344298 7.522276 0.856476 0.661889 7.501339 -6.042791 0.749037 3.928812 3.368466 3.317233 -4.712720 6.130872 3.271769 11.343524 1.657284 1.982240 4.568474 0.000000 0.000000 0.000000 6.877515 27.579167 -82.566376 36.701264 -45.989432 16.024815 -9.342997 5.121185 31.803350 0.000000 0.000000 0.000000 -7.125000 0.000000 0.000000 -22.754381 -0.106123 -24.842748 0.000000 0.000000 0.000000 1.012479 32.481194 61.759554 -39.573521 -47.815162 -18.122565 0.065448 11.386920 -10.573899 0.000000 0.000000 0.000000 7.125000 0.000000 0.000000 18.967820 19.650247 12.163574
2.285177 17.322728 -6.936319 -62.045837 -75.568220 58.072697 0.000000 0.000000 0.000000 -3.016542 -10.308748 -65.927079 29.093108 17.888463 117.522099 0.876468 -10.859775 -17.258845 1.165941 -6.854525 -19.285223 0.000000 0.000000 0.000000 31.653813 2.099813 -10.191376 -2.686094 -10.168376 29.523959 -1.404602 7.447213 -21.193642 -1.331388 7.304736 -20.622417 11.938890 0.256502 7.514696 0.922052 0.529262 7.527344 -5.742176 0.664695 3.914805 3.326129 3.236527 -4.833842 5.783065 3.230653 11.094912 1.539944 1.945458 4.505842 0.000000 0.000000 0.000000 6.694041 28.053806 -82.242050 36.989110 -46.181338 16.232191 -10.409830 5.526151 31.416678 0.000000 0.000000 0.000000 -7.125000 0.000000 0.000000 -23.326286 0.264682 -25.430063 0.000000 0.000000 0.000000 0.656199 32.689262 62.318755 -39.806959 -47.955118 -18.295800 -1.031861 11.588408 -10.127849 0.000000 0.000000 0.000000 7.125000 0.000000 0.000000 18.274162 20.058790 11.490438
2.320915 17.263670 -7.024164 -56.789251 -74.442007 52.943453 0.000000 0.000000 0.000000 -3.067594 -10.335723 -64.677737 28.179717 18.312790 114.582840 0.961424 -9.574779 -17.751850 1.088494 -6.630362 -18.624685 0.000000 0.000000 0.000000 31.984373 1.217814 -11.699047 -2.989925 -10.678136 31.202506 -1.649202 7.156084 -23.014263 -1.716475 8.247121 -23.468087 11.963207 0.107297 7.734839 1.169881 0.346137 7.605882 -5.486372 0.563012 3.840404 3.273470 3.143360 -4.889065 5.362563 3.196523 10.669752 1.394362 1.904377 4.366445 0.000000 0.000000 0.000000 6.307899 28.398386 -81.734570 37.247739 -46.352064 16.419081 -11.674993 5.887843 31.017130 0.000000 0.000000 0.000000 -7.125000 0.000000 0.000000 -24.001291 0.636781 -26.154102 0.000000 0.000000 0.000000 0.107436 32.869144 62.814829 -40.050550 -48.099778 -18.476857 -1.916544 12.029717 -10.224217 0.000000 0.000000 0.000000 7.125000 0.000000 0.000000 17.659885 19.953563 11.107184
2.368294 17.165170 -7.109419 -52.793026 -72.970492 48.926997 0.000000 0.000000 0.000000 -2.978888 -10.223125 -63.494489 26.973827 18.789070 110.795556 1.063206 -7.973832 -18.455410 0.998123 -6.357659 -17.825806 0.000000 0.000000 0.000000 32.617699 0.571460 -13.501928 -3.463460 -11.407923 33.670718 -1.936696 6.221707 -25.072301 -2.163882 9.197002 -26.415195 12.268593 -0.126026 8.250748 1.547632 0.090761 7.739774 -5.245286 0.425412 3.661192 3.239805 3.042742 -5.007643 4.796789 3.163027 10.206562 1.198932 1.859200 4.229395 0.000000 0.000000 0.000000 5.682993 28.578139 -81.096567 37.386956 -46.443242 16.519905 -12.893930 6.323102 30.638165 0.000000 0.000000 0.000000 -7.125000 0.000000 0.000000 -24.650437 0.976591 -26.863049 0.000000 0.000000 0.000000 -0.605095 32.892802 62.978670 -40.160881 -48.164891 -18.559032 -1.394113 12.339468 -11.370015 0.000000 0.000000 0.000000 7.125000 0.000000 0.000000 17.895435 18.871979 11.729928
2.429886 17.027224 -7.188970 -49.445999 -71.400050 45.413055 0.000000 0.000000 0.000000 -3.192437 -9.983221 -62.330414 25.294843 19.313036 105.654012 1.187394 -5.783699 -19.494063 0.931897 -6.149306 -17.218341 0.000000 0.000000 0.000000 33.204980 0.117256 -15.605519 -4.138767 -12.342117 36.954190 -2.220484 4.586263 -27.138240 -2.560472 9.946616 -28.804438 12.711624 -0.437661 9.065964 1.967570 -0.238837 8.026632 -5.026479 0.254738 3.478367 3.242141 2.927339 -5.280931 3.958207 3.134592 9.576045 0.908355 1.806769 4.069134 0.000000 0.000000 0.000000 4.894531 28.469617 -80.453776 37.316937 -46.397473 16.469188 -13.637708 7.303380 30.477248 0.000000 0.000000 0.000000 -7.125000 0.000000 0.000000 -25.040454 1.112366 -27.323998 0.000000 0.000000 0.000000 -1.350800 32.633887 62.676918 -40.284942 -48.237807 -18.651483 0.781045 12.664547 -13.068490 0.000000 0.000000 0.000000 7.125000 0.000000 0.000000 19.169302 17.302942 13.375447
2.506583 16.849809 -7.264425 -46.314775 -69.864068 41.952331 0.000000 0.000000 0.000000 -4.006344 -9.416541 -61.103692 22.860566 19.794484 98.393244 1.311942 -3.228937 -20.836700 0.894772 -6.028878 -16.868230 0.000000 0.000000 0.000000 33.543122 -0.264076 -17.973531 -5.018941 -13.402001 40.898333 -2.432964 2.532185 -28.872611 -2.776510 10.324046 -30.032639 13.170183 -0.805835 10.179358 2.384569 -0.629956 8.573355 -4.803612 0.061944 3.413397 3.224816 2.764306 -5.604518 2.813605 3.084103 8.476735 0.516115 1.725727 3.759356 0.000000 0.000000 0.000000 3.998733 27.934045 -79.734240 37.056738 -46.226139 16.281011 -13.931722 9.151434 30.668811 0.000000 0.000000 0.000000 -7.125000 0.000000 0.000000 -25.173336 0.927698 -27.593237 0.000000 0.000000 0.000000 -2.082688 32.146493 62.145715 -40.434893 -48.325417 -18.763457 1.887953 14.394393 -14.670611 0.000000 0.000000 0.000000 7.125000 0.000000 0.000000 19.725311 15.812344 14.500668
2.596474 16.648809 -7.342782 -42.785751 -68.497466 38.044501 0.000000 0.000000 0.000000 -5.652565 -8.297907 -59.762666 19.477957 19.980872 88.473069 1.421228 -0.936354 -22.266526 0.890380 -6.014450 -16.826300 0.000000 0.000000 0.000000 33.456238 -0.717556 -20.535138 -6.043409 -14.467271 45.150098 -2.575602 0.511400 -30.270470 -2.751761 10.281789 -29.894285 13.312758 -1.186143 11.548765 2.738269 -1.037553 9.295505 -4.458462 -0.148318 3.401679 3.180330 2.527698 -5.698469 1.530869 2.946906 6.910627 0.078769 1.592015 3.250307 0.000000 0.000000 0.000000 3.093739 27.144130 -78.945913 36.682827 -45.976996 16.011622 -13.764316 11.951050 31.171817 0.000000 0.000000 0.000000 -7.125000 0.000000 0.000000 -25.049228 0.464187 -27.644466 0.000000 0.000000 0.000000 -2.763960 31.632149 61.518196 -40.618645 -48.432185 -18.900795 1.158107 17.390278 -15.998552 0.000000 0.000000 0.000000 7.125000 0.000000 0.000000 19.131749 14.542435 14.564195
2.720716 16.441553 -7.415410 -36.710208 -67.636995 32.169694 0.000000 0.000000 0.000000 -9.206433 -6.780977 -58.551554 15.079026 19.398745 75.466715 1.492128 1.168024 -23.539340 0.950050 -6.207282 -17.387006 0.000000 0.000000 0.000000 31.926245 -1.262793 -23.840125 -7.229659 -15.520840 49.735160 -2.715148 -0.817363 -31.511072 -2.525584 9.884044 -28.602241 12.439088 -1.562196 12.999707 2.726241 -1.475026 9.915170 -3.928111 -0.417435 3.211393 3.152728 2.249694 -5.421891 0.300046 2.722074 5.194135 -0.340174 1.422021 2.631025 0.000000 0.000000 0.000000 2.313534 26.345270 -78.244239 36.276711 -45.702486 15.720236 -13.074289 15.378230 31.795216 0.000000 0.000000 0.000000 -7.125000 0.000000 0.000000 -24.656243 -0.102816 -27.371198 0.000000 0.000000 0.000000 -3.367713 31.174182 60.917070 -40.818893 -48.547631 -19.050715 -0.410268 20.647176 -16.888803 0.000000 0.000000 0.000000 7.125000 0.000000 0.000000 18.058433 13.649840 14.015516
